<svg width="130" height="129" viewBox="0 0 130 129" fill="none" xmlns="http://www.w3.org/2000/svg">
<path d="M64.7083 127.837C99.668 127.837 128.008 99.4963 128.008 64.5366C128.008 29.577 99.668 1.23663 64.7083 1.23663C29.7487 1.23663 1.40833 29.577 1.40833 64.5366C1.40833 99.4963 29.7487 127.837 64.7083 127.837Z" stroke="#E6E6E6" stroke-width="2" stroke-miterlimit="10" stroke-linecap="round" stroke-linejoin="round"/>
<path d="M89.4083 107.737C95.4835 107.737 100.408 102.812 100.408 96.7366C100.408 90.6615 95.4835 85.7366 89.4083 85.7366C83.3332 85.7366 78.4083 90.6615 78.4083 96.7366C78.4083 102.812 83.3332 107.737 89.4083 107.737Z" stroke="#E6E6E6" stroke-width="2" stroke-miterlimit="10" stroke-linecap="round" stroke-linejoin="round"/>
<path d="M67.5083 76.7366C74.3014 76.7366 79.8083 71.2297 79.8083 64.4366C79.8083 57.6435 74.3014 52.1366 67.5083 52.1366C60.7152 52.1366 55.2083 57.6435 55.2083 64.4366C55.2083 71.2297 60.7152 76.7366 67.5083 76.7366Z" stroke="#E6E6E6" stroke-width="2" stroke-miterlimit="10" stroke-linecap="round" stroke-linejoin="round"/>
<path d="M46.0083 115.537C50.9237 115.537 54.9083 111.552 54.9083 106.637C54.9083 101.721 50.9237 97.7366 46.0083 97.7366C41.093 97.7366 37.1083 101.721 37.1083 106.637C37.1083 111.552 41.093 115.537 46.0083 115.537Z" stroke="#E6E6E6" stroke-width="2" stroke-miterlimit="10" stroke-linecap="round" stroke-linejoin="round"/>
<path d="M93.1083 50.3366C97.14 50.3366 100.408 47.0683 100.408 43.0366C100.408 39.005 97.14 35.7366 93.1083 35.7366C89.0766 35.7366 85.8083 39.005 85.8083 43.0366C85.8083 47.0683 89.0766 50.3366 93.1083 50.3366Z" stroke="#E6E6E6" stroke-width="2" stroke-miterlimit="10" stroke-linecap="round" stroke-linejoin="round"/>
<path d="M50.5083 12.4366C56.5083 2.93663 64.3083 1.23663 64.3083 1.23663" stroke="#E6E6E6" stroke-width="2" stroke-miterlimit="10" stroke-linecap="round" stroke-linejoin="round"/>
<path d="M7.90833 36.4366C7.90833 36.4366 35.8083 39.1366 44.4083 21.9366" stroke="#E6E6E6" stroke-width="2" stroke-miterlimit="10" stroke-linecap="round" stroke-linejoin="round"/>
<path d="M53.9083 45.1366C66.0083 31.3366 80.2083 15.2366 105.808 16.4366" stroke="#E6E6E6" stroke-width="2" stroke-miterlimit="10" stroke-linecap="round" stroke-linejoin="round"/>
<path d="M1.40833 64.1366C1.40833 64.1366 30.1083 60.9366 46.2083 51.2366" stroke="#E6E6E6" stroke-width="2" stroke-miterlimit="10" stroke-linecap="round" stroke-linejoin="round"/>
<path d="M107.708 37.5366C115.308 35.7366 121.008 35.7366 121.008 35.7366" stroke="#E6E6E6" stroke-width="2" stroke-miterlimit="10" stroke-linecap="round" stroke-linejoin="round"/>
<path d="M5.00832 85.6366C5.00832 85.6366 25.5083 86.1366 46.2083 77.8366" stroke="#E6E6E6" stroke-width="2" stroke-miterlimit="10" stroke-linecap="round" stroke-linejoin="round"/>
<path d="M98.1083 81.7366C110.308 68.1366 128.008 64.0366 128.008 64.0366" stroke="#E6E6E6" stroke-width="2" stroke-miterlimit="10" stroke-linecap="round" stroke-linejoin="round"/>
<path d="M62.2083 106.137C65.4083 105.837 69.1083 105.437 72.0083 104.637" stroke="#E6E6E6" stroke-width="2" stroke-miterlimit="10" stroke-linecap="round" stroke-linejoin="round"/>
<path d="M15.1083 103.737C15.1083 103.737 20.6083 104.637 28.7083 105.437" stroke="#E6E6E6" stroke-width="2" stroke-miterlimit="10" stroke-linecap="round" stroke-linejoin="round"/>
</svg>
