<svg width="62" height="62" viewBox="0 0 62 62" fill="none" xmlns="http://www.w3.org/2000/svg">
<path d="M59.7274 35.7912C58.6703 42.2861 55.602 47.75 50.7803 52.2345C45.8556 56.8221 40.0026 59.3994 33.2987 60.018C32.8861 60.0437 32.4994 60.0953 32.0868 60.1468H29.2764C29.1474 60.1211 29.0443 60.0953 28.9154 60.0695C27.7809 59.9407 26.6206 59.8633 25.5119 59.6571C19.0143 58.4974 13.4965 55.4819 9.0358 50.6623C4.472 45.7397 1.91937 39.9149 1.30055 33.2397C1.27477 32.8273 1.2232 32.4407 1.17163 32.0283V29.2191C1.19742 29.0902 1.2232 28.9613 1.24898 28.8325C1.30055 28.2139 1.32634 27.5954 1.40369 27.0026C1.84202 23.4717 2.87338 20.1212 4.52357 16.9768C10.4539 5.61087 23.0882 -0.651998 35.7224 1.53872C41.6785 2.56964 46.9127 5.14696 51.1929 9.39953C58.5414 16.6933 61.4034 25.5593 59.7274 35.7912Z" stroke="white" stroke-width="2" stroke-miterlimit="10"/>
<path d="M33.892 13.0593C33.0669 16.5645 32.2676 20.0181 31.4682 23.4974C32.1386 23.549 32.7832 23.6005 33.4278 23.6521C36.0836 23.884 38.6105 24.5799 40.9826 25.7655C42.1171 26.3325 43.2 27.0283 44.283 27.6727C44.515 27.8273 44.644 27.8015 44.8502 27.6211C47.4802 25.3273 51.6572 26.6418 52.3792 29.9923C52.8175 31.9768 51.9409 34.116 50.1875 35.1469C49.9039 35.3015 49.8266 35.4819 49.8524 35.7912C50.0586 40.3015 48.2279 43.7809 44.4377 46.2809C41.4983 48.2139 38.2753 49.5025 34.7686 49.9664C29.6634 50.6365 24.687 50.2242 19.9685 47.9819C18.0605 47.0798 16.2298 46.0489 14.7343 44.5025C12.9294 42.6726 11.8723 40.4562 11.5887 37.9046C11.5113 37.1572 11.5371 36.4098 11.5371 35.6624C11.5371 35.4304 11.4855 35.3273 11.305 35.2242C9.06182 33.9355 8.26251 31.1263 9.4228 28.8325C10.2221 27.2603 12.2333 26.2294 14.0124 26.5129C14.9922 26.6675 15.8946 27.0026 16.6166 27.6984C16.7971 27.8531 16.9002 27.8015 17.0807 27.6984C19.7107 25.8428 22.5985 24.5799 25.77 23.9871C26.9302 23.7809 28.1163 23.6778 29.2766 23.549C29.4829 23.5232 29.586 23.4717 29.6376 23.2655C30.4885 19.5541 31.3651 15.8428 32.2418 12.1057C32.448 11.1779 32.8348 10.9201 33.7888 11.1263C36.2641 11.6676 38.7136 12.2088 41.1889 12.75C41.4209 12.8016 41.5241 12.7243 41.6272 12.5438C42.3234 11.4614 43.6384 10.8944 44.876 11.1521C46.191 11.4098 47.1708 12.3892 47.4286 13.6779C47.7638 15.4047 46.6551 17.0541 44.9018 17.415C43.2258 17.75 41.4983 16.616 41.1889 14.8892C41.1373 14.6572 41.06 14.6057 40.8537 14.5541C38.662 14.0645 36.4962 13.6005 34.3045 13.1109C34.1498 13.1109 34.0467 13.0851 33.892 13.0593ZM38.1463 37.518C39.8997 37.518 41.3178 36.1005 41.3178 34.3479C41.3178 32.6211 39.8739 31.2036 38.1721 31.2036C36.4188 31.2036 35.0007 32.6211 34.9749 34.3479C34.9749 36.1005 36.393 37.518 38.1463 37.518ZM23.2173 37.518C24.9706 37.518 26.3888 36.1005 26.3888 34.3479C26.3888 32.6211 24.9706 31.2036 23.2173 31.2036C21.464 31.2036 20.0201 32.6469 20.0459 34.3737C20.0459 36.1005 21.4898 37.518 23.2173 37.518ZM30.6947 45.817C31.5198 45.7139 32.3707 45.6881 33.17 45.5335C35.1554 45.1726 36.9603 44.3994 38.5847 43.2139C38.7394 43.1108 38.8425 42.9046 38.8941 42.7242C38.9714 42.4407 38.8167 42.2087 38.5589 42.0541C38.2753 41.8737 38.0174 41.951 37.7596 42.1314C34.9749 44.0128 31.9066 44.7087 28.5546 44.1675C26.7498 43.8582 25.0996 43.1881 23.5783 42.1572C23.4236 42.0541 23.1658 41.9768 22.9595 42.0025C22.6759 42.0283 22.4954 42.2603 22.4438 42.5438C22.3922 42.8531 22.4954 43.085 22.7532 43.2654C25.1511 44.9149 27.7811 45.7396 30.6947 45.817Z" fill="white"/>
</svg>
