<svg width="246" height="90" viewBox="0 0 246 90" fill="none" xmlns="http://www.w3.org/2000/svg">
<path d="M10.5084 88.0366H4.3084L5.9084 83.0366L6.0084 82.6366H8.8084L9.0084 83.0366L10.5084 88.0366Z" stroke="#E6E6E6" stroke-width="1.5" stroke-miterlimit="10" stroke-linecap="round" stroke-linejoin="round"/>
<path d="M20.2084 88.0366H14.0084L15.5084 83.0366L15.7084 82.6366H18.5084L18.6084 83.0366L20.2084 88.0366Z" stroke="#E6E6E6" stroke-width="1.5" stroke-miterlimit="10" stroke-linecap="round" stroke-linejoin="round"/>
<path d="M29.8084 88.0366H23.7084L25.2084 83.0366L25.3084 82.6366H28.1084L28.3084 83.0366L29.8084 88.0366Z" stroke="#E6E6E6" stroke-width="1.5" stroke-miterlimit="10" stroke-linecap="round" stroke-linejoin="round"/>
<path d="M27.5084 48.7366V56.2366L23.9084 62.4366C22.6084 64.7366 21.9084 67.3366 21.9084 70.0366V82.6366H12.2084V70.0366C12.2084 67.3366 11.5084 64.7366 10.2084 62.4366L6.6084 56.2366V48.8366H27.5084V48.7366Z" stroke="#E6E6E6" stroke-width="2" stroke-miterlimit="10" stroke-linecap="round" stroke-linejoin="round"/>
<path d="M27.5084 25.7366H6.6084V48.6366H27.5084V25.7366Z" stroke="#E6E6E6" stroke-width="2" stroke-miterlimit="10" stroke-linecap="round" stroke-linejoin="round"/>
<path d="M12.2084 70.0366V82.6366H1.1084V70.0366C1.1084 67.3366 1.8084 64.7366 3.1084 62.4366L6.6084 56.2366L10.1084 62.4366C11.5084 64.7366 12.2084 67.3366 12.2084 70.0366Z" stroke="#E6E6E6" stroke-width="2" stroke-miterlimit="10" stroke-linecap="round" stroke-linejoin="round"/>
<path d="M33.1084 70.0366V82.6366H21.9084V70.0366C21.9084 67.3366 22.6084 64.7366 23.9084 62.4366L27.5084 56.2366L31.0084 62.4366C32.4084 64.7366 33.1084 67.3366 33.1084 70.0366Z" stroke="#E6E6E6" stroke-width="2" stroke-miterlimit="10" stroke-linecap="round" stroke-linejoin="round"/>
<path d="M27.5084 19.5366V25.7366H6.6084V18.7366C6.6084 13.7366 8.2084 8.73663 11.4084 4.23663L12.1084 3.23663C13.0084 2.03663 14.8084 1.23663 16.7084 1.23663C18.6084 1.23663 20.4084 1.93663 21.3084 3.13663L22.1084 4.23663C25.7084 9.03663 27.5084 14.2366 27.5084 19.5366Z" stroke="#E6E6E6" stroke-width="2" stroke-miterlimit="10" stroke-linecap="round" stroke-linejoin="round"/>
<path d="M221.908 88.0366H215.708L217.208 83.0366L217.408 82.5366H220.208L220.308 83.0366L221.908 88.0366Z" stroke="#161616" stroke-width="2" stroke-miterlimit="10"/>
<path d="M231.508 88.0366H225.408L226.908 83.0366L227.008 82.5366H229.808L230.008 83.0366L231.508 88.0366Z" stroke="#161616" stroke-width="2" stroke-miterlimit="10"/>
<path d="M241.208 88.0366H235.008L236.608 83.0366L236.708 82.5366H239.508L239.608 83.0366L241.208 88.0366Z" stroke="#161616" stroke-width="2" stroke-miterlimit="10"/>
<path d="M238.908 48.7366V56.1366L235.308 62.3366C234.008 64.6366 233.308 67.2366 233.308 69.9366V82.5366H223.608V69.9366C223.608 67.2366 222.908 64.6366 221.608 62.3366L218.108 56.1366V48.7366H238.908Z" stroke="#161616" stroke-width="2" stroke-miterlimit="10"/>
<path d="M238.908 25.7366H218.008V48.6366H238.908V25.7366Z" stroke="#161616" stroke-width="2" stroke-miterlimit="10"/>
<path d="M223.608 69.9366V82.5366H212.508V69.9366C212.508 67.2366 213.208 64.6366 214.508 62.3366L218.008 56.1366L221.508 62.3366C222.908 64.6366 223.608 67.3366 223.608 69.9366Z" stroke="#161616" stroke-width="2" stroke-miterlimit="10"/>
<path d="M244.408 69.9366V82.5366H233.308V69.9366C233.308 67.2366 234.008 64.6366 235.308 62.3366L238.908 56.1366L242.408 62.3366C243.708 64.6366 244.408 67.3366 244.408 69.9366Z" stroke="#161616" stroke-width="2" stroke-miterlimit="10"/>
<path d="M238.908 19.5366V25.7366H218.008V18.7366C218.008 13.7366 219.608 8.73663 222.808 4.23663L223.508 3.23663C224.408 2.03663 226.208 1.23663 228.108 1.23663C230.008 1.23663 231.808 1.93663 232.708 3.13663L233.508 4.23663C237.008 9.03663 238.908 14.2366 238.908 19.5366Z" stroke="#161616" stroke-width="2" stroke-miterlimit="10"/>
</svg>
