<svg width="62" height="62" viewBox="0 0 62 62" fill="none" xmlns="http://www.w3.org/2000/svg">
<path d="M56.8401 44.48C51.4369 54.152 43.1381 59.4059 32.063 60.0925C26.7494 60.4209 21.6746 59.2567 16.9879 56.6894C8.65922 52.1221 3.58441 45.1368 1.7933 35.7932C1.58434 34.6588 1.49478 33.5244 1.31567 32.39V28.8974C1.34553 28.7183 1.40523 28.569 1.40523 28.3899C1.70375 24.2704 2.77841 20.3896 4.77848 16.7776C9.37566 8.47874 16.3311 3.37408 25.6748 1.58298C26.8091 1.37401 27.9435 1.28446 29.0779 1.10535H32.5407C32.6899 1.1352 32.8392 1.1949 32.9885 1.1949C37.108 1.46357 41.0186 2.53823 44.6008 4.53831C54.3026 10.0012 59.5864 18.3 60.273 29.4049C60.6014 34.7185 59.4372 39.8232 56.8401 44.48Z" stroke="white" stroke-width="2" stroke-miterlimit="10"/>
<path d="M22.3014 21.1061C22.3014 20.8075 22.3014 20.5687 22.3014 20.2702C25.406 20.2702 28.5105 20.2702 31.645 20.2702C31.645 20.5389 31.645 20.7777 31.645 21.0464C31.2569 21.1359 30.839 21.1956 30.4509 21.315C29.7046 21.5837 29.4658 22.0912 29.7942 22.8076C30.8091 25.0465 31.8241 27.2854 32.8391 29.4944C32.8391 29.5243 32.8988 29.5541 32.9585 29.6138C33.2271 29.1063 33.4659 28.5989 33.7048 28.0914C34.4511 26.5092 35.2272 24.8972 35.9735 23.3151C36.5108 22.1509 36.2123 21.5538 34.9585 21.2852C34.5108 21.1956 34.063 21.1658 33.5854 21.1061C33.5854 20.8374 33.5854 20.5986 33.5854 20.3001C36.272 20.3001 38.9288 20.3001 41.6155 20.3001C41.6155 20.5389 41.6155 20.7777 41.6155 21.0762C41.4364 21.1061 41.1976 21.1359 40.9886 21.1956C39.4363 21.524 38.2422 22.3001 37.5556 23.7927C36.4511 26.151 35.3168 28.5093 34.1525 30.8378C34.0033 31.1661 34.0033 31.4049 34.1525 31.7333C35.5854 34.9573 37.0183 38.2111 38.5109 41.5844C38.6303 41.3456 38.7199 41.1665 38.7796 41.0172C41.317 35.1663 43.8245 29.3452 46.3918 23.4942C46.6007 23.0166 46.5112 22.7181 46.2127 22.3598C45.6455 21.6732 44.8693 21.3747 44.0335 21.1956C43.8544 21.1658 43.7051 21.1359 43.526 21.1061C43.526 20.8075 43.526 20.5389 43.526 20.2404C46.3321 20.2404 49.1083 20.2404 51.8845 20.2404C51.8845 20.5389 51.8845 20.7777 51.8845 21.0464C51.795 21.0762 51.6756 21.1359 51.5561 21.1359C49.974 21.2852 48.9292 22.1509 48.3321 23.5539C46.5709 27.5839 44.8096 31.6437 43.0484 35.6737C41.4364 39.4052 39.8244 43.1367 38.2124 46.8682C38.0631 47.1965 37.9139 47.4055 37.5258 47.3757C37.1377 47.3757 37.0183 47.1667 36.869 46.8682C35.2571 43.0173 33.6152 39.1664 31.9734 35.3155C31.8838 35.1364 31.7942 34.9275 31.6748 34.6588C31.5256 34.9275 31.4062 35.1364 31.2868 35.3752C29.3165 39.1963 27.3463 43.0173 25.406 46.8383C25.197 47.2264 24.988 47.3458 24.5701 47.3458C24.1223 47.3458 24.0328 47.0771 23.9134 46.7786C20.8983 39.9127 17.8833 33.0169 14.8981 26.0913C14.1518 24.3599 13.0473 22.927 11.495 21.8524C10.9875 21.524 10.4203 21.315 9.79346 20.9867C9.79346 20.8374 9.79346 20.5687 9.79346 20.2404C13.316 20.2404 16.8385 20.2404 20.3311 20.2404C20.5103 21.0464 20.5103 21.0464 19.7341 21.2255C19.2565 21.3449 18.7789 21.524 18.3311 21.7628C17.4355 22.2404 17.2863 22.8076 17.6743 23.733C18.749 26.2107 19.8535 28.6884 20.9282 31.1661C22.4506 34.6886 24.0029 38.241 25.5254 41.7635C25.6149 41.9426 25.6746 42.1217 25.794 42.3606C25.9134 42.1814 26.003 42.0322 26.0627 41.9128C27.5553 39.1067 29.018 36.2708 30.5106 33.4647C30.6897 33.1363 30.6897 32.8975 30.5405 32.5393C29.1673 29.4646 27.7344 26.4197 26.4508 23.3449C25.794 21.8225 24.6895 21.2852 23.1969 21.1956C22.8984 21.1658 22.5999 21.1359 22.3014 21.1061Z" fill="white"/>
</svg>
